<svg width="48" height="48" viewBox="0 0 48 48" fill="none" xmlns="http://www.w3.org/2000/svg">
  <defs>
    <linearGradient id="finTileGrad" x1="0" y1="0" x2="48" y2="48" gradientUnits="userSpaceOnUse">
      <stop offset="0%" stopColor="#0F172A" />
      <stop offset="50%" stopColor="#1E293B" />
      <stop offset="100%" stopColor="#0B1329" />
    </linearGradient>

    <linearGradient id="finRibbonGrad" x1="6" y1="42" x2="42" y2="6" gradientUnits="userSpaceOnUse">
      <stop offset="0%" stopColor="#2563EB" />
      <stop offset="40%" stopColor="#3B82F6" />
      <stop offset="75%" stopColor="#06B6D4" />
      <stop offset="100%" stopColor="#10B981" />
    </linearGradient>

    <linearGradient id="aiSparkGrad" x1="28" y1="6" x2="44" y2="22" gradientUnits="userSpaceOnUse">
      <stop offset="0%" stopColor="#F59E0B" />
      <stop offset="50%" stopColor="#EC4899" />
      <stop offset="100%" stopColor="#8B5CF6" />
    </linearGradient>

    <linearGradient id="finBorderGrad" x1="0" y1="0" x2="48" y2="48" gradientUnits="userSpaceOnUse">
      <stop offset="0%" stopColor="#38BDF8" stopOpacity="0.8" />
      <stop offset="50%" stopColor="#818CF8" stopOpacity="0.3" />
      <stop offset="100%" stopColor="#34D399" stopOpacity="0.6" />
    </linearGradient>
  </defs>

  <rect width="48" height="48" rx="14" fill="url(#finTileGrad)" stroke="url(#finBorderGrad)" stroke-width="1.5" />

  <path d="M10 24H38M24 10V38" stroke="#334155" stroke-width="0.75" stroke-dasharray="2 3" opacity="0.4" />

  <path d="M12 36L20 28M20 28C22 26 24 24 27 24H36M20 28V36M12 18H28C32 18 34 16 34 12V10" stroke="url(#finRibbonGrad)" stroke-width="4" stroke-linecap="round" stroke-linejoin="round" />

  <path d="M29 36L37 28L33 24" stroke="url(#finRibbonGrad)" stroke-width="3.5" stroke-linecap="round" stroke-linejoin="round" />

  <path d="M37 8C37 11.5 39.5 14 43 14C39.5 14 37 16.5 37 20C37 16.5 34.5 14 31 14C34.5 14 37 11.5 37 8Z" fill="url(#aiSparkGrad)" />

  <circle cx="14" cy="14" r="2.5" fill="#F59E0B" />
</svg>